<svg width="230" height="141" viewBox="0 0 230 141" fill="none" xmlns="http://www.w3.org/2000/svg">
<path d="M65.7069 25.9597C66.4114 25.9597 67.2439 25.6408 68.1405 25.0667C69.9337 23.9186 70.8302 22.3878 70.8302 20.5381C70.8302 17.7955 69.2932 17.4128 68.3326 17.4128C67.436 17.4128 66.2192 17.7317 65.5148 19.39C65.0665 20.4743 64.6822 21.5587 64.4901 22.643C64.298 23.5359 64.0418 23.7273 64.0418 23.7273H63.1452L63.5295 24.8116C63.7216 25.2581 64.2339 25.9597 65.7069 25.9597Z" fill="#C1A04F"/>
<path d="M62.9531 66.9721C64.362 66.9721 65.9631 66.0792 67.8203 64.1657C69.5494 62.3798 71.0864 60.4025 72.4953 58.2339C73.6481 56.4479 74.8649 54.3431 76.0817 52.1107C75.8895 53.195 75.7615 54.2793 75.5693 55.4912L74.0964 64.9311C72.5594 66.2067 70.7022 68.184 68.7169 70.9267C64.1699 76.9861 61.0318 82.9179 59.3668 88.5308C58.7904 90.5718 58.4702 92.294 58.4702 93.6972C58.4702 97.0777 60.1993 98.8636 63.4654 98.8636C68.2045 98.8636 72.047 93.5696 75.3132 82.7265C77.3625 76.1569 79.7961 63.8468 82.678 46.1151C84.6633 45.9238 86.6486 45.4135 88.6339 44.6481L89.0181 44.5205L89.1462 41.3952L88.1856 41.8416C86.5205 42.607 84.8554 43.0535 83.1263 43.2449C83.8948 38.5887 84.4711 34.8893 84.9194 32.338L86.3284 32.0191H86.3924C90.7472 30.6796 94.5257 27.1078 97.5997 21.3673C100.097 16.6474 101.378 12.1826 101.378 8.03666C101.378 1.40323 98.2401 0 95.6785 0C93.6932 0 91.8359 0.892962 90.1068 2.67889C88.5058 4.40103 87.0969 6.56965 85.9441 9.12097C83.1263 15.1804 80.3725 26.2148 77.8748 41.7779L77.1063 43.3724H75.7615C75.5053 43.3724 74.7368 43.5 74.7368 44.7757C74.7368 46.0513 75.4412 46.1789 75.7615 46.1789L75.2491 47.2632C73.4559 50.8988 71.2785 54.5982 68.7809 58.2977C65.6429 62.89 64.1059 63.5916 63.4014 63.5916C63.0812 63.5916 62.1846 63.5916 62.1846 60.7852C62.1846 58.5528 62.5048 55.9377 63.0812 53.0674C63.4014 51.2177 63.7216 49.7507 63.9778 48.6026C64.2339 47.3908 64.6182 45.7962 65.1305 43.8827C65.5788 41.9692 65.9631 40.5022 66.1552 39.4817C66.3473 38.4611 66.4754 37.4406 66.4754 36.4839C66.4754 35.5271 66.3473 34.6979 66.1552 33.9963C65.5148 31.8915 64.298 31.445 63.4654 31.445C62.761 31.445 61.8003 31.8277 61.4161 33.6136C61.224 34.3153 61.0959 35.0169 60.9038 35.7823C60.7757 36.4839 60.5835 37.1217 60.4555 37.632C60.3274 38.0784 60.1353 38.7801 59.9431 39.7368C57.5095 48.3475 56.3568 54.7258 56.3568 58.6166C56.3568 65.5051 59.9431 66.9721 62.9531 66.9721ZM68.7169 88.467C67.1158 93.0594 65.1946 95.4194 63.0171 95.4194C62.761 95.4194 61.8644 95.4193 61.8644 93.0594C61.8644 91.1459 63.2733 87.2551 66.0271 81.5147C68.3326 76.6672 70.7662 72.7126 73.1998 69.7786C71.7909 77.6877 70.3179 84.0022 68.7169 88.467ZM90.2989 9.7588C91.9 5.35777 93.8212 3.12537 95.9346 3.12537C97.2155 3.12537 97.8559 4.65616 97.8559 7.71774C97.8559 11.0982 96.6391 15.1166 94.2695 19.6452C91.7079 24.6202 88.7619 27.7456 85.4958 28.8299C87.0328 20.6019 88.6339 14.1598 90.2989 9.7588Z" fill="#C1A04F"/>
<path d="M91.3236 43.3724C89.7866 46.9443 89.0181 50.0696 89.0181 52.5572C89.0181 55.0447 89.2743 57.1496 89.7866 58.8079C91.3877 64.1657 95.1661 66.9084 101.058 66.9084C103.171 66.9084 105.413 65.9516 107.718 64.1657C109.96 62.3798 111.945 60.4025 113.546 58.2339C114.635 56.7669 115.788 55.1085 116.94 53.2588C116.492 55.3636 116.172 57.022 115.916 58.1701C115.467 60.2111 115.275 61.5506 115.275 62.316C115.275 63.1452 115.403 63.9106 115.724 64.6122C116.428 66.3981 117.645 66.7808 118.477 66.7808C119.374 66.7808 120.078 66.0792 120.463 64.7397C121.808 60.3387 123.857 54.8534 126.483 48.4113C128.084 44.393 129.813 41.0762 131.67 38.5249C133.399 36.1012 135 34.8255 136.281 34.8255C136.729 34.8255 137.626 34.8255 137.626 36.739C137.626 38.3974 136.857 42.1606 135.256 48.0286C133.655 53.9604 132.887 58.489 132.887 61.5506C132.887 68.1202 135.769 69.5235 138.202 69.5235C138.971 69.5235 139.675 69.2683 140.316 68.8218C140.956 68.3116 141.276 67.8013 141.276 67.1635V66.5257H140.636C139.803 66.5257 139.355 64.8673 139.355 61.9333C139.355 59.6371 140.059 55.4912 141.404 49.5594C142.813 43.5 143.518 39.6092 143.518 37.8233C143.518 35.9098 143.005 34.379 141.917 33.2309C140.828 32.0828 139.355 31.5088 137.562 31.5088C133.015 31.5088 128.724 35.7823 124.369 44.5205C125.074 40.6298 125.842 36.4201 126.675 31.8915C128.916 30.7434 131.222 28.3196 133.655 24.4289C137.114 18.9435 139.291 13.5858 140.123 8.41935C140.316 7.33504 140.38 6.3783 140.38 5.48534C140.38 0.956745 138.074 0 136.089 0C133.207 0 130.645 2.42375 128.468 7.27126C127.379 9.63123 126.419 12.1188 125.586 14.6701C124.753 17.2214 123.857 20.4743 122.96 24.6202C122 28.9575 121.167 32.5293 120.527 35.5271C120.142 37.4406 119.63 39.673 119.118 42.2243L118.285 43.9465C116.94 47.0081 114.507 51.0264 111.113 55.8739C109.576 57.9787 107.91 59.7647 106.053 61.2317C104.26 62.6349 102.595 63.4003 100.994 63.4003C97.0233 63.4003 95.1021 60.5301 95.1021 54.662C95.1021 50.3886 96.2548 45.9238 98.4323 41.3952C100.61 36.9941 102.979 34.7617 105.477 34.7617C106.117 34.7617 106.758 34.9531 106.758 36.3563C106.758 37.7595 106.437 39.1628 105.733 40.6298C105.029 42.1606 104.644 42.4795 104.516 42.5433H103.748L104.068 43.3724C104.452 44.5205 105.221 44.6481 105.669 44.6481C106.886 44.6481 107.974 44.1378 108.935 43.2449C109.832 42.3519 110.472 41.2676 110.728 40.1195C110.984 38.9714 111.177 37.7595 111.177 36.4839C111.177 35.0806 110.6 33.805 109.447 32.6569C108.487 31.7639 107.142 31.2537 105.477 31.2537C103.94 31.2537 102.339 31.6364 100.738 32.338C96.7031 34.3153 93.5651 38.0147 91.3236 43.3724ZM136.281 3.12537C136.921 3.44428 137.242 4.27346 137.242 5.6129C137.242 9.05719 135.705 13.7771 132.695 19.7089C130.901 23.1532 129.172 25.7045 127.571 27.3629C131.606 6.82478 134.744 3.31672 136.281 3.12537Z" fill="#C1A04F"/>
<path d="M152.355 66.8446C156.134 66.8446 160.553 62.316 165.74 53.0037C165.484 54.7258 165.42 56.3204 165.42 57.7236C165.42 63.9106 167.661 67.0359 172.016 67.0359C173.425 67.0359 175.026 66.143 176.883 64.2295C178.613 62.4435 180.15 60.4663 181.559 58.2977C182.455 56.8944 183.416 55.2999 184.376 53.5139C184.12 55.555 183.928 57.2771 183.928 58.6166C183.928 65.5051 187.514 66.9721 190.524 66.9721C191.933 66.9721 193.534 66.0792 195.392 64.1657C197.121 62.3798 198.658 60.4025 200.067 58.2339C201.091 56.6393 202.116 54.8534 203.205 52.9399C202.244 58.6804 201.732 61.9333 201.732 62.6349C201.732 66.0154 203.333 66.717 204.614 66.717C205.318 66.717 206.279 66.3343 206.663 64.4208C206.919 63.2727 207.816 60.4025 209.481 55.8739C211.082 51.3453 213.259 46.4978 215.949 41.5227C219.151 35.5909 221.2 34.3152 222.353 34.3152C223.058 34.3152 223.698 34.5704 223.698 36.2287C223.698 37.8871 222.865 41.7141 221.264 47.7097C219.599 53.8328 218.767 58.4252 218.767 61.4868C218.767 68.0564 221.649 69.4597 224.082 69.4597C224.851 69.4597 225.555 69.2045 226.196 68.7581C226.836 68.2478 227.156 67.7375 227.156 67.0997V66.4619H226.516C225.683 66.4619 225.235 64.8035 225.235 61.8695C225.235 59.5733 225.939 55.3636 227.412 49.4318C228.885 43.3087 229.59 39.3541 229.59 37.5044C229.59 35.5271 229.078 33.9326 228.053 32.7845C227.028 31.5726 225.491 30.9985 223.634 30.9985C219.343 30.9985 215.052 35.4633 210.569 44.5843L211.146 41.5865C211.338 40.5022 211.466 39.5455 211.466 38.5887C211.466 37.632 211.338 36.739 211.018 35.9098C210.313 33.805 209.096 33.4223 208.264 33.4223C207.624 33.4223 206.471 33.7412 206.151 35.6547C205.702 38.0147 205.318 40.2471 204.934 42.3519L202.5 47.327C200.707 50.9626 198.53 54.662 196.032 58.3614C192.894 62.9538 191.357 63.6554 190.652 63.6554C190.332 63.6554 189.436 63.6554 189.436 60.849C189.436 58.6166 189.756 56.0015 190.332 53.1312C190.652 51.2815 190.973 49.8145 191.229 48.6664C191.485 47.4545 191.869 45.86 192.382 43.9465C192.83 42.033 193.214 40.566 193.406 39.5455C193.598 38.5249 193.726 37.5044 193.726 36.5477C193.726 35.5909 193.598 34.7617 193.406 34.0601C192.766 31.9553 191.549 31.5088 190.716 31.5088C190.012 31.5088 189.051 31.8915 188.667 33.6774C188.475 34.379 188.347 35.0806 188.155 35.846C188.027 36.6114 187.835 37.1855 187.707 37.6957C187.578 38.1422 187.386 38.8438 187.194 39.8006C187.002 40.566 186.81 41.3952 186.618 42.0968L183.992 47.327C182.199 50.9626 180.022 54.662 177.524 58.3614C174.386 62.9538 172.849 63.6554 172.144 63.6554C171.12 63.6554 170.928 61.9333 170.928 60.4663C170.928 59.8922 170.992 58.9355 171.12 57.6598C171.248 56.3204 172.208 51.3453 174.002 42.8622C174.194 41.9054 174.258 41.0762 174.258 40.3109C174.258 36.9941 172.785 36.2925 171.632 36.2925C170.223 36.2925 169.391 38.1422 168.942 39.5455C168.302 41.3952 166.188 45.6048 162.602 52.0469C160.937 55.1085 159.144 57.7874 157.223 60.0836C154.917 62.7625 153.508 63.3365 152.74 63.3365C151.587 63.3365 151.331 61.1679 151.331 59.3182C151.331 54.4069 152.612 49.1129 155.173 43.6276C157.799 37.8233 160.681 34.9531 163.755 34.9531C164.587 34.9531 165.164 35.0806 165.548 35.3996C166.06 35.7823 166.06 36.1012 166.06 36.2287C166.06 37.0579 166.573 37.5682 167.405 37.632C167.854 37.632 168.174 37.5682 168.494 37.313C168.686 37.1217 168.878 36.8666 168.878 36.3563C168.878 35.1444 168.366 33.9963 167.405 33.0396C166.445 32.0828 165.1 31.5726 163.435 31.5726C161.898 31.5726 160.297 31.8915 158.76 32.5293C154.469 34.379 150.947 38.4611 148.193 44.5205C146.207 48.9853 145.247 53.1312 145.247 56.8944C145.375 63.4003 147.744 66.8446 152.355 66.8446Z" fill="#C1A04F"/>
<path d="M193.342 25.9597C194.047 25.9597 194.879 25.6408 195.776 25.0667C197.569 23.9186 198.466 22.3878 198.466 20.5381C198.466 17.7955 196.929 17.4128 195.968 17.4128C195.071 17.4128 193.855 17.7317 193.15 19.39C192.702 20.4743 192.318 21.5587 192.125 22.643C191.933 23.5359 191.677 23.7273 191.677 23.7273H190.845L191.229 24.8116C191.357 25.2581 191.869 25.9597 193.342 25.9597Z" fill="#C1A04F"/>
<path d="M58.4702 120.741C50.4009 115.766 40.3463 117.424 31.5726 114.937C21.9663 112.258 14.4734 105.369 8.06927 98.0345C8.00523 97.9707 7.87714 98.0345 7.94118 98.162C14.0252 107.028 22.8629 114.427 33.5579 116.723C39.4498 117.999 45.5978 117.807 51.4256 119.402C54.6277 120.231 57.8298 121.634 60.1993 123.93C60.6476 124.377 61.6723 125.27 61.7363 126.035C61.8003 127.375 60.2633 128.714 59.0465 128.778C58.0219 128.842 56.613 128.204 56.3568 127.183C56.1006 126.099 57.7017 124.887 58.6623 125.589C59.1746 125.971 59.687 125.142 59.3027 124.696C56.2287 121.634 52.002 128.65 57.5736 130.181C59.8151 130.819 62.8891 129.671 63.4014 127.119C63.8497 124.377 60.5195 122.017 58.4702 120.741Z" fill="#C1A04F"/>
<path d="M226.836 89.7427C224.082 87.2551 219.023 87.3189 217.678 91.3372C216.525 94.7177 219.984 98.2258 223.122 96.695C224.082 96.2485 223.442 94.7177 222.417 95.1004C220.048 95.9934 218.511 92.2302 220.304 90.7632C221.521 89.7427 223.186 89.7427 224.531 90.5081C226.644 91.7199 228.437 94.7815 227.989 97.3328C227.156 101.861 219.471 104.221 215.821 105.114C207.239 107.283 198.017 106.007 189.5 103.52C172.849 98.6723 157.287 90.2529 139.547 92.2302C135.064 92.7405 130.005 93.761 125.266 95.4831C123.793 95.802 122.192 96.2485 120.591 96.7588C118.413 97.4604 116.108 98.2896 113.802 99.2463C111.433 100.203 109.063 101.287 106.63 102.435C101.762 104.668 96.7031 107.092 91.5798 109.26C86.4564 111.365 81.2691 113.215 76.2738 114.299C73.8402 114.809 71.4707 115.192 69.2292 115.447C68.0764 115.383 66.9877 115.256 65.835 115.256C64.8744 115.192 63.9778 115.192 63.0171 115.128C61.3521 114.554 59.5589 114.044 57.7017 113.534C55.4602 112.96 53.1547 112.386 50.7852 111.875C46.0461 110.791 41.0508 109.771 36.1836 108.431C31.3164 107.155 26.5773 105.561 22.4146 103.584C20.1732 102.563 18.1238 101.415 16.2666 100.203C16.3307 100.139 16.3947 100.139 16.4587 100.076C20.4293 101.925 24.8482 102.946 29.2031 102.946C34.5185 102.946 39.6419 101.415 44.8933 100.777C47.7752 100.458 52.2581 99.7566 54.4996 101.989C56.3568 103.839 55.0119 106.135 52.7704 106.773C51.9379 106.964 51.1694 107.028 50.2728 106.837C49.3122 106.837 48.6077 106.326 48.2875 105.306C48.8639 104.795 49.5043 104.285 50.0807 103.775C50.9132 104.094 51.4896 103.01 50.7852 102.563C48.9279 101.415 46.6224 102.691 46.6224 104.923C46.6224 107.538 49.3122 108.814 51.6177 108.75C54.1153 108.686 57.1253 107.411 57.3174 104.54C57.5095 101.861 55.2681 99.8204 52.8345 99.1825C49.3122 98.2258 45.2135 98.9912 41.6912 99.6928C37.2723 100.522 32.8534 101.606 28.3065 101.543C27.2818 101.543 26.3212 101.415 25.3606 101.351C27.6661 101.16 29.9716 100.65 31.5726 99.5015C36.4398 99.9479 41.8193 99.055 44.8293 94.8453C45.0854 94.4626 44.7652 94.0161 44.445 93.9523C41.0508 92.9318 37.2723 93.4421 34.3264 95.5469C33.2377 96.3123 32.4692 97.2691 31.5726 98.0982C31.3164 98.0982 31.0603 98.0982 30.8041 98.162C30.2918 98.162 30.0996 98.7999 30.2918 99.1188C29.8435 99.3739 29.3952 99.629 28.8188 99.8204C26.8976 100.394 24.8482 100.713 22.8629 100.905C20.7495 100.458 18.7642 99.7566 16.843 98.8636C16.843 98.6723 16.779 98.4809 16.7149 98.3534C19.0204 98.4809 21.454 97.9707 23.6314 97.3966C28.1144 96.3123 32.213 94.0799 34.2624 89.8064C34.4545 89.4875 34.3904 88.9135 33.9422 88.7221C29.8435 87.0638 25.3606 86.6173 21.0698 87.8292C19.0845 88.4032 16.843 89.2324 15.37 90.6994C14.7296 91.3372 14.4734 91.9751 14.0252 92.6767C12.8724 94.3988 11.3994 94.8453 9.92648 94.4626C8.83777 93.5696 7.87714 92.6767 6.85247 91.6562C5.0593 88.5308 4.09868 85.0865 4.09868 81.3233C4.09868 77.6239 4.48293 74.1796 5.18739 71.1818C8.83777 75.3915 14.0252 77.4963 20.6215 77.4963C25.5527 77.4963 29.9075 76.6034 33.6219 74.8812C37.3364 73.0953 40.3463 70.6716 42.5238 67.5462C44.6371 64.4208 46.2382 60.9765 47.2629 57.2133C48.2875 53.4501 48.7999 49.4956 48.7999 45.4773C48.7999 41.5227 47.9673 33.9963 46.3663 23.0894C49.5684 20.0916 52.0019 17.2852 53.667 14.7977C55.3962 12.1188 56.2927 9.43988 56.2287 6.69721C56.1006 4.78372 55.5242 3.25293 54.5636 1.97727C53.5389 0.701613 52.066 0.063783 50.2728 0.063783C43.7406 0 40.3463 6.18695 40.3463 18.4971C40.3463 20.2192 40.4744 22.0051 40.6665 23.7911L30.7401 32.0191C28.3705 29.978 25.2325 28.9575 21.454 28.9575C18.6362 28.9575 15.8824 29.5953 13.3847 30.8072C10.8871 32.0191 8.70969 33.7412 6.98056 35.7823C5.25143 37.8233 3.65038 40.566 2.17742 43.8827C0.70446 47.2632 0 51.0902 0 55.3636C0 59.8284 0.896585 63.783 2.62571 67.1635C1.28084 71.1818 0.576376 75.7104 0.576376 80.4941C0.576376 85.4692 1.9853 90.0616 4.80314 94.1437C5.76376 95.6107 6.91652 96.7588 8.06927 97.7155C12.1679 103.137 18.7002 107.538 24.3999 110.472C34.4545 115.575 45.2776 116.213 56.1647 116.595C56.4208 116.659 56.677 116.723 56.9332 116.787C59.0465 117.424 61.0318 118.062 62.889 118.764C66.5394 120.167 69.4213 121.826 71.3426 123.229C71.8549 123.548 72.2392 123.93 72.6874 124.249C73.0717 124.568 73.3919 124.823 73.7121 125.078C73.9683 125.334 74.2244 125.525 74.4166 125.716C74.6087 125.908 74.7368 126.035 74.8008 126.163C76.2097 127.63 77.4265 129.033 78.3872 130.117C78.5153 130.245 78.6433 130.372 78.7714 130.5C78.8355 130.564 78.8995 130.628 78.9635 130.628C79.0276 130.628 79.0276 130.628 79.0916 130.691H79.2197C79.1557 130.819 79.1557 131.01 79.1557 131.138C79.1557 131.265 79.2197 131.329 79.2838 131.457C79.3478 131.584 79.604 131.776 79.9882 131.712C80.1803 131.712 80.3084 131.648 80.3725 131.584C80.4365 131.521 80.5005 131.521 80.6286 131.457C80.7567 131.329 80.8848 131.138 80.9488 130.946C81.0769 130.564 81.0769 130.309 81.0769 130.054C81.0769 129.926 81.0129 129.798 81.0129 129.671C81.0129 129.607 80.9488 129.479 80.9488 129.416C80.8848 129.224 80.8848 129.033 80.8208 128.842C80.4365 127.247 79.2838 125.27 77.6187 123.548C77.4906 123.42 77.3625 123.293 77.1704 123.037C76.9782 122.846 76.658 122.591 76.3378 122.272C76.0176 121.953 75.6334 121.634 75.1851 121.315C75.057 121.188 74.9289 121.124 74.8008 120.996C77.7467 121.251 80.6286 121.188 83.5746 120.869C85.0475 121.826 86.6486 122.91 87.7373 124.249C88.2496 124.696 88.5698 125.27 88.7619 125.971C88.2496 126.864 87.7373 127.821 87.1609 128.714C85.6879 127.757 85.3037 126.864 85.9441 125.908C86.0722 125.652 86.2003 125.461 86.3924 125.206C86.6486 124.823 86.2003 124.377 85.816 124.504C83.5746 125.142 83.3824 128.395 85.1756 129.735C87.289 131.329 90.1068 129.798 90.427 127.311C90.8113 124.313 88.0575 122.144 85.6239 120.614C88.2496 121.634 90.7472 122.91 93.1168 124.504C95.9346 126.418 101.762 130.819 101.058 134.837C100.674 137.07 98.2401 139.047 96.0627 139.302C94.7178 139.493 93.2449 138.983 92.5404 137.707C91.5157 135.922 93.8853 133.37 95.6785 134.837C96.3829 135.475 97.4076 134.455 96.7672 133.753C94.5898 131.521 90.5551 133.243 90.5551 136.368C90.4911 140.131 94.7819 141.79 97.8559 140.641C100.866 139.493 103.62 136.113 102.787 132.796C101.826 128.969 97.7918 125.525 94.7819 123.356C92.8606 122.017 90.8753 120.869 88.7619 119.912C90.299 119.529 91.7719 119.083 93.2449 118.509C99.4569 116.085 104.965 112.194 111.305 110.089C114.763 108.941 118.541 108.24 122.128 108.941C122.832 109.069 124.305 109.26 124.817 109.898C125.714 111.11 125.138 113.215 123.985 114.044C123.088 114.746 121.423 115.001 120.527 114.172C119.63 113.342 120.399 111.301 121.679 111.301C122.384 111.301 122.384 110.217 121.743 110.089C117.004 109.133 117.453 118.19 123.473 116.213C125.906 115.447 128.084 112.513 126.931 109.898C125.714 106.9 121.167 106.773 118.477 106.9C108.039 107.219 99.7771 114.809 90.1709 117.935C88.9541 118.317 87.7373 118.636 86.4564 118.891C83.6386 117.807 80.6286 116.978 77.6187 116.404C82.678 115.511 87.8654 113.853 92.9247 111.939C98.2401 109.962 103.363 107.666 108.295 105.561C110.408 104.668 112.457 103.839 114.379 103.01C114.187 103.137 114.058 103.265 114.058 103.328C114.122 103.392 114.443 103.328 115.019 103.073C115.403 102.946 115.788 102.818 116.108 102.627C116.62 102.435 117.132 102.308 117.645 102.117C119.886 101.351 123.216 100.458 127.251 100.076C131.286 99.6928 136.025 99.8842 141.084 100.777C146.079 101.67 151.395 103.265 156.582 105.242C161.77 107.219 166.957 109.515 171.888 111.62C174.386 112.705 176.755 113.661 179.189 114.618C181.559 115.511 183.864 116.276 186.105 116.914C190.524 118.126 194.495 118.636 197.569 118.636C198.337 118.636 199.042 118.573 199.682 118.573C200.323 118.573 200.899 118.445 201.347 118.381C201.86 118.317 202.244 118.254 202.564 118.19C202.884 118.126 203.141 118.062 203.333 117.999C205.958 117.424 208.264 116.213 209.609 115.001C209.801 114.873 209.929 114.682 210.121 114.554C210.185 114.49 210.249 114.427 210.377 114.363C210.505 114.235 210.569 114.172 210.698 114.044C210.89 113.789 211.082 113.534 211.21 113.087C211.274 112.896 211.274 112.577 211.21 112.386C211.21 112.258 211.146 112.194 211.082 112.067C211.018 111.939 210.954 111.812 210.762 111.684C210.505 111.429 210.121 111.429 209.993 111.493C209.801 111.556 209.737 111.62 209.673 111.748C209.545 111.875 209.481 112.067 209.417 112.258L209.289 112.131C209.225 112.131 209.225 112.131 209.161 112.131C209.096 112.131 208.968 112.13 208.904 112.194C208.712 112.258 208.52 112.258 208.328 112.322C206.791 112.768 204.806 113.279 202.564 113.789C202.436 113.853 202.244 113.853 201.924 113.916C201.668 113.98 201.283 114.044 200.899 114.108C200.515 114.172 200.003 114.235 199.426 114.299C198.85 114.363 198.273 114.427 197.569 114.427C194.879 114.49 191.229 114.172 187.066 113.087C184.953 112.577 182.775 111.875 180.47 111.11C178.164 110.281 175.731 109.388 173.233 108.367C168.238 106.39 162.986 104.285 157.607 102.435C153.7 101.096 149.794 100.012 145.951 99.1825C145.951 99.1188 145.951 99.1188 145.951 99.055C145.823 98.6723 145.631 98.4172 145.439 98.162C145.311 98.0345 145.247 97.9707 145.119 97.8431C145.055 97.7793 144.991 97.7155 144.863 97.6518C144.734 97.5242 144.542 97.3966 144.35 97.2691C142.941 96.1847 140.636 95.1642 137.946 94.7815C137.754 94.7815 137.498 94.7177 137.178 94.654C136.857 94.5902 136.409 94.5902 135.961 94.5264C135.641 94.5264 135.192 94.4626 134.808 94.4626C139.739 93.5059 144.799 93.187 149.794 93.6334C161.962 94.654 173.169 100.076 184.633 103.902C195.071 107.411 206.471 109.771 217.23 106.837C221.2 105.752 226.708 103.711 229.142 100.012C231.063 96.9501 229.526 92.1664 226.836 89.7427ZM33.8781 97.1415C34.9028 96.2485 36.1196 95.5469 37.4004 95.1004C39.3217 94.3988 41.307 94.3988 43.2923 94.8453C40.5385 97.7793 36.824 97.9069 33.0456 98.0345C33.3017 97.7155 33.5579 97.3966 33.8781 97.1415ZM50.4009 3.44428C51.4256 3.44428 52.8345 3.82698 52.8345 6.95235C52.8345 10.1415 50.529 14.096 45.982 18.7522C45.7899 16.9663 45.7258 15.4993 45.7258 14.3512C45.7258 7.14369 47.2629 3.44428 50.4009 3.44428ZM79.604 130.628C79.604 130.691 79.604 130.691 79.604 130.628V130.628ZM32.5332 89.8064C30.7401 92.9318 27.602 94.5902 24.1438 95.5469C21.1338 96.3123 17.0351 97.3328 14.0892 95.8658C18.5721 93.9523 23.1191 92.6129 27.7941 91.1459C28.5626 90.8908 28.2424 89.8702 27.4739 89.9978C23.3753 90.6994 19.2766 92.1026 15.306 93.6334C18.5081 87.9567 26.8335 87.7016 32.5332 89.8064ZM30.2918 40.6298C30.2918 44.2016 28.9469 47.4545 26.2571 50.3248C24.464 52.3021 22.4787 53.3226 20.3653 53.3226H19.5968L19.7249 54.088C19.853 54.7896 20.1091 55.3636 20.5574 55.7463C20.9417 56.129 21.518 56.3204 22.2225 56.3204C24.9123 56.3204 27.3458 55.4912 29.4592 53.8966C31.5086 52.3021 32.9815 50.4523 33.75 48.3475C34.5826 46.3065 34.9668 43.8827 34.9668 41.2676C34.9668 38.7801 34.2624 36.5477 32.9175 34.5066L40.9868 27.8094C41.8833 37.1217 42.3316 42.7346 42.3316 44.6481C42.3316 52.5572 40.6665 59.4457 37.3364 64.9949C35.6713 67.8013 33.3658 70.0337 30.4199 71.6283C27.4739 73.2229 24.0157 74.052 20.1091 74.052C13.833 74.052 9.3501 71.8196 6.40418 67.2273C8.32543 61.6782 11.2714 56.4479 15.306 51.6642C19.2125 47.0081 24.0797 42.1606 29.7794 37.2493C30.1637 38.3336 30.2918 39.4817 30.2918 40.6298ZM4.61101 47.5821C6.53226 41.4589 9.67031 36.9941 13.9611 34.4428C16.2666 33.0396 18.8923 32.338 21.7742 32.338C24.3359 32.338 26.3852 33.0396 27.9222 34.379C16.2026 44.393 8.26139 53.8328 4.35484 62.6349C3.71442 60.4663 3.39422 58.1701 3.39422 55.6826C3.39422 52.8761 3.77847 50.1972 4.61101 47.5821ZM18.38 105.369C16.0105 103.711 13.9611 101.798 11.9758 99.8204C12.3601 99.9479 12.7443 100.012 13.1286 100.139C15.4981 102.053 18.38 103.902 21.518 105.561C25.7448 107.793 30.612 109.579 35.4792 111.046C40.2183 112.449 44.9573 113.661 49.5043 114.809C43.9967 114.554 38.5532 113.98 33.2377 112.449C27.9863 110.919 22.927 108.495 18.38 105.369ZM72.6874 119.593C71.5987 118.891 70.3179 118.19 68.909 117.488C69.6775 117.488 70.51 117.424 71.2785 117.361C72.1111 117.424 72.8796 117.552 73.7121 117.68C73.7121 117.807 73.8402 117.871 73.9683 117.871C74.7368 117.871 75.5053 117.935 76.2738 118.062C76.8502 118.19 77.4265 118.254 78.0029 118.381C79.2197 118.7 80.3725 119.083 81.4612 119.657C78.5153 119.912 75.5693 119.848 72.6874 119.593Z" fill="#C1A04F"/>
</svg>
